<svg width="192" height="192" viewBox="0 0 192 192" fill="none" xmlns="http://www.w3.org/2000/svg">
<path fill-rule="evenodd" clip-rule="evenodd" d="M179.962 96.1123C149.057 96.1123 124 71.0712 123.975 40.1717C123.958 60.8754 112.703 78.949 95.981 88.6222C79.2589 78.949 68.0042 60.8754 67.9873 40.1717C67.9621 71.0712 42.9054 96.1123 12 96.1123L12.0001 96.1123C42.9055 96.1123 67.9622 121.153 67.9874 152.053C68.0043 131.349 79.259 113.276 95.981 103.602C112.703 113.276 123.958 131.349 123.975 152.053C124 121.153 149.057 96.1123 179.962 96.1123ZM95.9894 88.6575H95.9727C87.7396 93.3973 78.1817 96.1099 67.9874 96.1099H67.9874V96.1099C67.9874 96.1099 67.9874 96.1099 67.9874 96.1099C78.1851 96.1099 87.7461 98.8244 95.981 103.567C104.216 98.8244 113.777 96.1099 123.975 96.1099C113.78 96.1099 104.223 93.3973 95.9894 88.6575Z" fill="url(#paint0_linear_9_299)"/>
<defs>
<linearGradient id="paint0_linear_9_299" x1="13.065" y1="96.1123" x2="179.962" y2="96.1123" gradientUnits="userSpaceOnUse">
<stop stop-color="#7401B8"/>
<stop offset="0.495442" stop-color="#7401B8"/>
<stop offset="0.498177" stop-color="#CD0AD0"/>
<stop offset="1" stop-color="#CD0AD0"/>
</linearGradient>
</defs>
</svg>
