<svg width="458" height="309" viewBox="0 0 458 309" fill="none" xmlns="http://www.w3.org/2000/svg">
<g filter="url(#filter0_d_2_107)">
<path fill-rule="evenodd" clip-rule="evenodd" d="M228.949 134.326C273.575 108.511 303.599 60.2619 303.599 5C303.599 87.4559 370.443 154.3 452.899 154.3C370.443 154.3 303.599 221.143 303.599 303.599C303.599 248.337 273.575 200.088 228.949 174.273C184.324 200.088 154.3 248.337 154.3 303.599C154.3 221.143 87.4559 154.3 5 154.3H5.00012C87.4003 154.3 154.209 87.5462 154.3 5.16714C154.36 60.3592 184.368 108.537 228.949 134.326ZM228.972 134.42H228.927C206.972 147.059 181.484 154.293 154.3 154.293V154.293C181.494 154.293 206.989 161.532 228.949 174.179C250.909 161.532 276.405 154.293 303.599 154.293C276.414 154.293 250.927 147.059 228.972 134.42Z" fill="url(#paint0_linear_2_107)"/>
</g>
<defs>
<filter id="filter0_d_2_107" x="0" y="0" width="457.899" height="308.599" filterUnits="userSpaceOnUse" color-interpolation-filters="sRGB">
<feFlood flood-opacity="0" result="BackgroundImageFix"/>
<feColorMatrix in="SourceAlpha" type="matrix" values="0 0 0 0 0 0 0 0 0 0 0 0 0 0 0 0 0 0 127 0" result="hardAlpha"/>
<feOffset/>
<feGaussianBlur stdDeviation="2.5"/>
<feComposite in2="hardAlpha" operator="out"/>
<feColorMatrix type="matrix" values="0 0 0 0 0.454902 0 0 0 0 0.00392157 0 0 0 0 0.721569 0 0 0 1 0"/>
<feBlend mode="normal" in2="BackgroundImageFix" result="effect1_dropShadow_2_107"/>
<feBlend mode="normal" in="SourceGraphic" in2="effect1_dropShadow_2_107" result="shape"/>
</filter>
<linearGradient id="paint0_linear_2_107" x1="7.83993" y1="154.3" x2="452.899" y2="154.3" gradientUnits="userSpaceOnUse">
<stop stop-color="#7401B8"/>
<stop offset="0.495442" stop-color="#7401B8"/>
<stop offset="0.498177" stop-color="#CD0AD0"/>
<stop offset="1" stop-color="#CD0AD0"/>
</linearGradient>
</defs>
</svg>
